<svg xmlns="http://www.w3.org/2000/svg" xmlns:xlink="http://www.w3.org/1999/xlink">
    <defs>
        <symbol id="icon-gym-bars" viewBox="0 -14 512.00102 512">
            <path d="m496.695312 452.632812h-13.851562v-370.0625c0-22.183593-18.046875-40.230468-40.230469-40.230468h-186.484375v-27.035156c0-8.453126-6.851562-15.304688-15.300781-15.304688-8.453125 0-15.304687 6.851562-15.304687 15.304688v27.035156h-165.757813v-27.035156c0-8.453126-6.855469-15.304688-15.304687-15.304688-8.453126 0-15.304688 6.851562-15.304688 15.304688v437.328124h-13.851562c-8.453126 0-15.304688 6.851563-15.304688 15.304688 0 8.449219 6.851562 15.300781 15.304688 15.300781h58.3125c8.453124 0 15.304687-6.851562 15.304687-15.300781 0-8.453125-6.851563-15.304688-15.304687-15.304688h-13.851563v-22.957031h165.757813v22.957031h-13.855469c-8.449219 0-15.300781 6.851563-15.300781 15.304688 0 8.449219 6.851562 15.300781 15.300781 15.300781h58.316406c8.453125 0 15.304687-6.851562 15.304687-15.300781 0-8.453125-6.851562-15.304688-15.304687-15.304688h-13.855469v-237.441406c1.75 25.171875 22.777344 45.125 48.386719 45.125 26.753906 0 48.519531-21.765625 48.519531-48.519531 0-21.40625-13.941406-39.605469-33.214844-46.03125v-92.816406h68.726563v92.816406c-19.273437 6.425781-33.214844 24.625-33.214844 46.03125 0 26.753906 21.765625 48.519531 48.519531 48.519531 25.609376 0 46.636719-19.953125 48.386719-45.125v237.441406h-13.855469c-8.453124 0-15.304687 6.851563-15.304687 15.304688 0 8.449219 6.851563 15.300781 15.304687 15.300781h58.316407c8.449219 0 15.300781-6.851562 15.300781-15.300781 0-8.453125-6.851562-15.304688-15.304688-15.304688zm-436.929687-231.925781v-88.304687h165.757813v88.304687zm165.757813 30.605469v28.847656h-165.757813v-28.847656zm-165.757813 59.453125h165.757813v28.851563h-165.757813zm165.757813-237.820313v28.847657h-165.757813v-28.847657zm-165.757813 326.125v-28.847656h165.757813v28.847656zm244.75-169.363281c-9.875 0-17.910156-8.035156-17.910156-17.910156 0-9.878906 8.035156-17.914063 17.910156-17.914063 9.878906 0 17.914063 8.035157 17.914063 17.914063 0 9.875-8.035157 17.910156-17.914063 17.910156zm-15.300781-63.941406c-18.246094 6.082031-31.699219 22.71875-33.085938 42.636719v-135.457032h33.085938zm114.636718 63.941406c-9.878906 0-17.914062-8.035156-17.914062-17.910156 0-9.878906 8.035156-17.914063 17.914062-17.914063 9.875 0 17.910157 8.035157 17.910157 17.914063 0 9.875-8.035157 17.910156-17.910157 17.910156zm15.300782-63.941406v-92.820313h23.460937c5.308594 0 9.625 4.316407 9.625 9.625v125.832032c-1.386719-19.917969-14.839843-36.554688-33.085937-42.636719zm0 0"
            />
        </symbol>
        <symbol id="icon-pull-up-posture" viewBox="0 0 419.259 419.259">
            <path d="M374.458,208.597c22.718,0,41.199-18.481,41.199-41.198c0-22.716-18.481-41.197-41.199-41.197  c-22.716,0-41.197,18.481-41.197,41.197C333.261,190.116,351.742,208.597,374.458,208.597z M374.458,144.202  c12.792,0,23.199,10.406,23.199,23.197c0,12.792-10.407,23.198-23.199,23.198c-12.791,0-23.197-10.406-23.197-23.198  C351.261,154.608,361.667,144.202,374.458,144.202z M419.259,284.057c0,4.971-4.029,9-9,9H9c-4.971,0-9-4.029-9-9s4.029-9,9-9  h401.259C415.229,275.057,419.259,279.086,419.259,284.057z M3.602,248.439v-15.88c0-3.729,2.3-7.071,5.782-8.405l150.412-57.588  c1.027-0.393,2.117-0.595,3.218-0.595c0.001,0,0.002,0,0.004,0l148.813,0.063c0.008-0.001,0.017-0.001,0.026,0  c0.008,0.001,0.019,0.001,0.026,0c0.01-0.001,0.02-0.001,0.026,0c0.009-0.001,0.02,0.004,0.026,0.001  c1.153,0.014,2.255,0.244,3.265,0.653c0.007,0,0.006,0.003,0.009,0.003c1.095,0.443,2.12,1.111,3.005,2.003  c0.862,0.868,1.511,1.869,1.946,2.937c0.4,0.979,0.633,2.045,0.663,3.16c0,0.004,0,0.008,0,0.008c0,0.006,0,0.01,0,0.01  c0.004,0.137,0.004,0.27,0.001,0.403v0.001c0,0,0,0.016,0,0.023l-0.001,0.015c0,0.003,0,0.006,0,0.006  c-0.027,1.108-0.254,2.165-0.646,3.137c-0.443,1.104-1.113,2.138-2.012,3.028l-36.004,35.734l32.107,18.852h21.919  c4.971,0,9,4.029,9,9s-4.029,9-9,9h-24.123c-1.606,0.044-3.288-0.352-4.796-1.237l-44.298-26.009  c-2.408-1.413-4.023-3.865-4.373-6.636c-0.349-2.771,0.607-5.546,2.59-7.513l28.803-28.588l-125.316-0.053L21.602,238.75v9.688  c0,4.971-4.029,9-9,9S3.602,253.41,3.602,248.439z"
            />
        </symbol>
    </defs>
</svg>
